<?xml version="1.0" encoding="UTF-8"?>
<svg id="Layer_2" data-name="Layer 2" xmlns="http://www.w3.org/2000/svg" xmlns:xlink="http://www.w3.org/1999/xlink" viewBox="0 0 198 71.62">
  <defs>
    <mask id="mask" x="190.92" y="0" width="7.08" height="7.03" maskUnits="userSpaceOnUse">
      <g id="mask-2">
        <polygon id="path-1" points="190.92 0 198 0 198 7.03 190.92 7.03 190.92 0" fill="#fff" fill-rule="evenodd"/>
      </g>
    </mask>
    <mask id="mask-1" x="0" y="0" width="198" height="71.62" maskUnits="userSpaceOnUse">
      <g id="mask-4">
        <polygon id="path-3" points="0 71.62 198 71.62 198 0 0 0 0 71.62" fill="#fff" fill-rule="evenodd"/>
      </g>
    </mask>
    <mask id="mask-2-2" data-name="mask-2" x="0" y="0" width="198" height="71.62" maskUnits="userSpaceOnUse">
      <g id="mask-4-2" data-name="mask-4">
        <polygon id="path-3-2" data-name="path-3" points="0 71.62 198 71.62 198 0 0 0 0 71.62" fill="#fff" fill-rule="evenodd"/>
      </g>
    </mask>
  </defs>
  <g id="Layer_1-2" data-name="Layer 1">
    <g id="Symbols">
      <g id="Layout_Header_Desktop" data-name="Layout/Header/Desktop">
        <g id="Group-13">
          <path id="Fill-1" d="M173.41,40.94h17.5v-3.67h-2.08c-2.8,0-3.19-.29-3.19-3V15.17c0-2.71.39-3,3.19-3h2.08v-3.67h-17.5v3.67h2.08c2.8,0,3.19.29,3.19,3v19.1c0,2.71-.39,3-3.19,3h-2.08v3.67ZM143.2,40.94h3.34l1.06-3.05c3.58,2.66,7.11,4.01,10.78,4.01,7.25,0,12.13-4.35,12.13-10.44,0-5.17-3.43-8.51-10.35-10.1l-6.53-1.5c-3.24-.73-4.79-1.93-4.79-4.21,0-2.56,2.18-4.16,6.14-4.16,5.27,0,9.04,3.29,10.15,9.28h3.67v-12.28h-2.9l-1.69,2.37c-2.9-2.27-5.9-3.34-9.43-3.34-7.16,0-11.7,4.06-11.7,10.1,0,5.22,3.38,7.93,10.64,9.62l5.27,1.21c3.77.87,5.51,2.32,5.51,4.83,0,2.71-2.32,4.21-6.67,4.21-5.95,0-9.81-3.48-10.88-9.96h-3.77v13.39ZM105.68,40.94h31.91v-13.73h-3.67c-.53,7.78-1.93,10.06-7.83,10.06h-8.51v-11.41h1.89c4.06,0,4.83,1.06,5.12,6.62h3.67v-16.24h-3.67c-.29,4.93-1.02,5.9-5.17,5.9h-1.84v-9.96h7.78c6.57,0,8.36,1.64,8.56,9.23h3.67v-12.91h-31.91v3.67h1.89c2.8,0,3.19.29,3.19,3v19.1c0,2.71-.39,3-3.19,3h-1.89v3.67ZM84.75,12.07v22.19c0,2.71-.39,3-3.19,3h-2.8v3.67h18.81v-3.67h-2.76c-2.8,0-3.24-.29-3.24-3V12.07h.73c5.22,0,7.4,3.09,7.45,9.86h3.72v-13.44h-30.55v13.44h3.72c.05-6.87,2.22-9.86,7.49-9.86h.63Z" fill="#00603a" fill-rule="evenodd"/>
          <path id="Fill-3" d="M26.06,28.37c-.92,5.95-3.96,9.09-8.7,9.09-5.99,0-9.62-4.4-9.62-12.52,0-8.61,3.72-13.44,9.52-13.44,5.03,0,8.46,3.48,9.23,9.77h3.72V7.96h-3.48l-.97,2.9c-2.95-2.27-5.95-3.34-9.43-3.34-4.3,0-8.12,1.55-11.22,4.64C1.79,15.51.1,19.66.1,24.69s1.79,9.43,5.08,12.71c3.05,3.05,6.87,4.5,11.6,4.5,7.88,0,12.81-4.84,13.44-13.54h-4.16Z" fill="#00603a" fill-rule="evenodd"/>
          <path id="Fill-5" d="M58.43,40.39c-1.85-1.89-3.89-3.04-6.04-3.32v4.75c2.14-.12,4.18-.61,6.04-1.43h0ZM63.47,37.05c-3.16-2.39-6.96-3.9-11.08-4.14v2.2c2.88.29,5.57,1.83,7.87,4.33,1.16-.66,2.23-1.47,3.21-2.39h0ZM67.11,32.28c-4.18-3.02-9.24-4.86-14.72-5.06v3.51c4.71.26,9.04,2.02,12.53,4.81.85-1,1.58-2.09,2.19-3.26h0ZM50.58,37.16c-2.15.27-4.19,1.43-6.04,3.32,1.87.82,3.9,1.31,6.04,1.43v-4.75ZM50.58,32.99c-4.12.23-7.92,1.74-11.08,4.14.98.92,2.05,1.73,3.21,2.39,2.3-2.5,4.99-4.04,7.87-4.33v-2.2ZM50.58,27.3c-5.48.19-10.54,2.04-14.72,5.06.61,1.17,1.34,2.26,2.19,3.26,3.49-2.8,7.82-4.55,12.53-4.81v-3.51ZM50.57,23.44c-5.83-.21-11.2-2.13-15.51-5.27-.78,1.94-1.24,4.04-1.32,6.23h0s0,0,0,0h0s0,0,0,0c.08,2.19.53,4.3,1.32,6.23,4.3-3.13,9.67-5.06,15.51-5.27v-.97h0v-.98ZM44.53,8.35c1.85,1.89,3.89,3.04,6.04,3.32v-4.75c-2.14.12-4.18.61-6.04,1.43h0ZM39.5,11.69c3.16,2.39,6.96,3.9,11.08,4.14v-2.2c-2.88-.29-5.57-1.83-7.87-4.33-1.16.66-2.23,1.47-3.21,2.39h0ZM35.85,16.47c4.18,3.02,9.24,4.86,14.72,5.06v-3.51c-4.71-.26-9.04-2.02-12.53-4.81-.85,1-1.58,2.09-2.19,3.26h0ZM52.39,11.75c2.15-.27,4.19-1.43,6.04-3.32-1.87-.82-3.9-1.31-6.04-1.43v4.75ZM52.39,15.91c4.12-.23,7.92-1.74,11.08-4.14-.98-.92-2.05-1.73-3.21-2.39-2.3,2.5-4.99,4.04-7.87,4.33v2.2ZM52.39,21.61c5.48-.19,10.54-2.04,14.72-5.06-.61-1.17-1.34-2.26-2.19-3.26-3.49,2.8-7.82,4.55-12.53,4.81v3.51ZM69.2,24.41s0,0,0-.01h0c-.08-2.17-.54-4.23-1.3-6.14-4.3,3.13-9.67,5.06-15.51,5.27v.88h0v.91c5.83.21,11.2,2.13,15.51,5.27.77-1.91,1.22-3.97,1.3-6.14h0s0-.01,0-.02h0Z" fill="#a47f2d" fill-rule="evenodd"/>
          <g id="Group-9">
            <g mask="url(#mask)">
              <path id="Fill-7" d="M194.09,3.36v-.98c0-.27.08-.33.33-.33s.66.11.66.63c0,.27-.08.44-.27.57-.14.05-.33.11-.49.11h-.22ZM196.47,5.06c-.08-.05-.22-.14-.36-.25-.41-.49-.63-.77-.9-1.29.44-.16.74-.46.74-.93,0-.79-.71-.96-1.31-.96h-1.86v.41c.46.03.49.03.49.52v1.86c0,.49-.03.49-.52.52v.41h1.83v-.41c-.44-.03-.49-.03-.49-.52v-.66h.11c.14,0,.27.03.36.19.11.19.27.52.49.88.33.44.71.55,1.34.55l.08-.33ZM194.44.63c1.59,0,2.79,1.29,2.79,2.9s-1.2,2.87-2.76,2.87-2.76-1.23-2.76-2.87,1.15-2.9,2.74-2.9h0ZM194.47,0c-2,0-3.56,1.64-3.56,3.53s1.53,3.5,3.53,3.5,3.56-1.64,3.56-3.5-1.5-3.53-3.53-3.53h0Z" fill="#00603a" fill-rule="evenodd"/>
            </g>
          </g>
          <g mask="url(#mask-1)">
            <polygon id="Fill-10" points="0 49.58 190.99 49.58 190.99 47.59 0 47.59 0 49.58" fill="#a47f2d" fill-rule="evenodd"/>
          </g>
          <g mask="url(#mask-2-2)">
            <path id="Fill-12" d="M190.3,56.62v-.58h-4.16v.58h1.94v10.1h-.03l-5.46-10.68h-4.47v.58h1.86v14.07h-1.74v.58h4.17v-.58h-1.98v-14.14h.03l7.72,15.07h.36v-15h1.77ZM171.24,56.8c.47.36.81.94,1.02,1.75.21.81.32,2.28.32,4.41,0,2.35-.09,4.09-.26,5.22-.17,1.13-.54,1.89-1.1,2.28-.56.39-1.12.58-1.68.58-.91,0-1.59-.32-2.01-.95-.43-.64-.69-1.44-.8-2.41-.1-.97-.16-2.27-.16-3.9,0-2.35.09-4.01.28-4.95.18-.95.53-1.61,1.04-1.99.51-.38,1.08-.57,1.73-.57s1.16.18,1.63.54h0ZM173.37,69.22c1.1-1.6,1.65-3.46,1.65-5.58s-.55-3.9-1.64-5.52c-1.1-1.62-2.33-2.43-3.71-2.43-1.47,0-2.76.8-3.87,2.39-1.11,1.59-1.66,3.52-1.66,5.78,0,1.88.53,3.64,1.59,5.29,1.06,1.65,2.34,2.48,3.86,2.48,1.43,0,2.7-.8,3.8-2.4h0ZM154.97,70.69v.58h5.92v-.58h-1.93v-14.07h1.93v-.58h-5.92v.58h1.91v14.07h-1.91ZM150.63,55.87c-.16.36-.34.67-.56.93-.78-.74-1.62-1.11-2.52-1.11-1.08,0-1.93.45-2.56,1.36-.63.91-.94,1.93-.94,3.08,0,.83.18,1.59.54,2.28.36.69.8,1.17,1.3,1.44.51.28,1.23.52,2.18.73s1.63.59,2.05,1.14c.42.55.63,1.22.63,2.03,0,.95-.3,1.74-.91,2.37-.61.62-1.28.94-2.01.94s-1.41-.34-2.03-1.01c-.62-.67-1.1-1.68-1.44-3.02h-.38v4.26h.31l.82-.95c.9.87,1.8,1.31,2.7,1.31,1.11,0,2.03-.5,2.78-1.49.75-.99,1.12-2.23,1.12-3.73,0-.97-.18-1.83-.54-2.58-.36-.75-.8-1.29-1.32-1.61-.52-.32-1.28-.59-2.28-.82-1-.22-1.68-.54-2.06-.95-.38-.41-.56-.91-.56-1.49,0-.63.23-1.24.68-1.82.45-.59,1.08-.88,1.9-.88,1.47,0,2.5,1.19,3.08,3.56h.41l-.05-3.95h-.36ZM134.67,70.69v.58h5.92v-.58h-1.93v-14.07h1.93v-.58h-5.92v.58h1.91v14.07h-1.91ZM120.05,56.62h1.57l4.35,15h.24l3.93-15h1.79v-.58h-4.15v.58h1.9l-2.81,10.75h-.04l-3.04-10.75h1.86v-.58h-5.6v.58ZM111.39,70.69v.58h5.92v-.58h-1.93v-14.07h1.93v-.58h-5.92v.58h1.91v14.07h-1.91ZM101.72,56.62c.86,0,1.56.11,2.1.33.54.22.99.8,1.36,1.73.37.93.55,2.34.55,4.24,0,1.58-.06,2.85-.17,3.83-.12.98-.34,1.78-.67,2.42-.33.64-.75,1.05-1.25,1.24-.5.19-1.15.28-1.95.28h-1.52v-14.07h1.56ZM96.26,70.69v.58h5.5c1.2,0,2.22-.23,3.05-.68.84-.45,1.57-1.32,2.21-2.6.64-1.28.96-2.73.96-4.36,0-1.54-.29-2.96-.87-4.28-.58-1.31-1.31-2.2-2.18-2.65-.87-.45-1.92-.68-3.14-.68h-5.53v.58h1.83v14.07h-1.83ZM77.4,56.62c1.1,0,1.89.27,2.36.82.47.55.78,1.43.93,2.67h.45l-.2-4.07h-9.96v.58h1.86v14.07h-1.86v.58h10.39l.11-5.1h-.45c-.1,1.54-.41,2.68-.93,3.41-.52.74-1.46,1.11-2.81,1.11h-2.39v-6.96h1.06c.65,0,1.14.2,1.45.59.32.39.5,1.2.55,2.43h.45v-6.45h-.45c-.03.89-.15,1.54-.35,1.95-.21.42-.44.67-.7.77-.26.09-.58.14-.95.14h-1.06v-6.53h2.49ZM67.83,56.62v-.58h-4.16v.58h1.94v10.1h-.03l-5.46-10.68h-4.47v.58h1.86v14.07h-1.74v.58h4.17v-.58h-1.98v-14.14h.03l7.72,15.07h.36v-15h1.77ZM46.66,70.69v.58h5.92v-.58h-1.93v-14.07h1.93v-.58h-5.92v.58h1.91v14.07h-1.91ZM37.81,56.62c.49,0,.9.05,1.2.14.31.09.57.35.78.76.22.41.32,1.06.32,1.94,0,1.08-.11,1.87-.32,2.37-.21.5-.5.8-.85.92-.36.12-.87.18-1.55.18h-1.57v-6.3h1.98ZM31.9,70.69v.58h5.77v-.58h-1.84v-7.24h1.09c1.16,0,1.91.33,2.24.98.33.66.49,1.32.49,1.99l-.03,1.93c-.01.67.18,1.35.58,2.04.4.7,1.07,1.04,2.04,1.04.47,0,.96-.11,1.47-.34v-.56c-.29.11-.53.16-.73.16-.31,0-.56-.14-.74-.41-.18-.28-.27-.91-.27-1.89,0-1.72-.31-2.94-.94-3.66-.63-.72-1.43-1.2-2.41-1.45v-.06c1.36-.3,2.33-.75,2.9-1.35.57-.6.86-1.38.86-2.34,0-.77-.2-1.46-.59-2.05-.39-.59-.85-.99-1.39-1.18s-1.23-.28-2.07-.28h-6.42v.58h1.84v14.07h-1.84ZM22.22,59.84h.03l1.65,6.1h-3.4l1.71-6.1ZM25.21,70.69h-1.9v.58h5.58v-.58h-1.57l-4.1-15h-.27l-4.27,15h-1.62v.58h4.25v-.58h-2.17l1.2-4.17h3.72l1.14,4.17ZM.79,56.62h1.76v14.07H.79v.58h3.99v-.58h-1.79v-14.34h.03l3.49,14.91h.4l3.49-14.91h.04v14.34h-1.79v.58h5.51v-.58h-1.74v-14.07h1.74v-.58h-4.1l-2.53,10.77h-.03l-2.51-10.77H.79v.58Z" fill="#a47e2d" fill-rule="evenodd"/>
          </g>
        </g>
      </g>
    </g>
  </g>
</svg>