<svg id="Layer_1" data-name="Layer 1" xmlns="http://www.w3.org/2000/svg" viewBox="0 0 549.23 106.81"><defs><style>.cls-1{fill:#00aeef}</style></defs><path class="cls-1" d="M81.66.63C80.45.2 79.21 0 78 0c-4.46 0-8.67 2.71-10.28 7.12l-.13.36-13.24 38.26L36.9 6.9c-.02-.05-.04-.12-.07-.2C35 2.62 30.99.24 26.81.24c-1.46 0-2.95.29-4.37.9-4.08 1.75-6.55 5.69-6.55 9.84 0 1.45.3 2.93.93 4.33l.16.36 11.35 25.27c-.9-.23-1.82-.37-2.76-.37-1.29 0-2.63.23-3.92.72a10.739 10.739 0 00-6.9 8.76c-1.33-.59-2.78-.91-4.27-.91-1.25 0-2.53.22-3.77.7C2.57 51.4-.01 55.3-.01 59.46c0 1.24.23 2.51.72 3.73s.02.06.02.06v.02h.01l3.08 7.8 1.6 4.06s2.57 7.07 2.68 7.38c5.75 15.04 20.28 24.28 35.7 24.28 4.43 0 8.94-.76 13.33-2.37 15.29-5.6 24.81-19.85 24.77-35.03-.01-4.92-1.16-9.5-1.85-11.73-.28-.89-.68-2.48-2.29-4.79a11.67 11.67 0 00-2.79-2.84l13.17-35.42s.05-.1.07-.16c.47-1.3.68-2.52.68-3.73 0-4.44-2.81-8.57-7.26-10.12m-61.4 10.39c0-2.44 1.45-4.79 3.92-5.85.87-.38 1.76-.54 2.65-.55 2.51 0 4.9 1.41 5.98 3.74.01.04.02.08.04.13l17.76 39.52-6.65-.04c-.05 0-.12-.01-.19-.02-.21-.02-.37-.01-.48-.01-2.29 0-4.43.66-6.25 1.78L20.7 13.36c-.32-.78-.47-1.58-.47-2.37m2.97 34.37c.78-.3 1.58-.44 2.38-.44 2.66 0 5.16 1.58 6.15 4.11-.02-.04-.02 0-.02 0l.02.08 1.68 4.06a11.496 11.496 0 00-1.96 5.96v.41c0 3.98 2.05 7.49 5.16 9.58-.33.92-1.05 1.86-2.9 2.65-.78.3-1.59.44-2.39.44-2.65 0-5.14-1.57-6.14-4.09l.04.11-2.49-6.32-3.3-8.34a6.14 6.14 0 01-.42-2.25c0-2.54 1.57-4.97 4.19-5.96m17.46 25.5s-.07.03-.11.05c0-.02.02-.04.02-.06h.09M4.71 61.49c-.25-.67-.37-1.35-.37-2.03 0-2.37 1.47-4.64 3.91-5.56a6.18 6.18 0 012.22-.41c2.48 0 4.8 1.47 5.73 3.82 0-.01 0 0 0 0l.03.09L19 64.37l2.6 6.59c.03.08.07.16.1.21.25.67.37 1.36.38 2.04 0 2.36-1.46 4.63-3.91 5.56-.73.27-1.49.41-2.23.41-2.48 0-4.8-1.48-5.73-3.82s-.66-1.68-.66-1.68l-.09-.24-1.57-3.97-3.16-7.97v-.02zm70.74-3.63c.75 1.73 2.14 7.72 2.14 11.56 0 13.37-8.35 25.97-21.92 30.94-3.91 1.43-7.9 2.1-11.84 2.1-12.94 0-25.14-7.33-30.71-19.32.91.25 1.86.4 2.82.4 1.26 0 2.54-.22 3.78-.69a10.38 10.38 0 006.47-7.58c1.58.83 3.33 1.3 5.13 1.3.16 0 .32-.04.48-.05a43.775 43.775 0 00-4.24 4.08c-1.46 1.6-2.77 3.22-3.93 4.97-.32.54-.69 1.02-.69 1.64 0 1.2.99 2.17 2.22 2.17.72 0 1.34-.36 1.74-.89 0 0 2.43-3.38 3.88-4.96 7.81-8.48 16.68-12 29.2-12.29h5.48c1.14-.1 2.04-1 2.04-2.14s-.92-2.17-2.04-2.27H42.97l-.01-.01c-4-.14-7.15-3.4-7.14-7.27v-.21c.14-3.95 3.43-7.08 7.48-7.08h.12s.09.01.15.02h.09l25.15.14v.02c2.76.02 4.28 1.37 5.45 2.97.55.79.47.74 1.22 2.47m8.76-45.11s-.04.1-.07.16L71.11 48.07 58.18 48 71.87 8.46c.98-2.52 3.47-4.12 6.14-4.12.73 0 1.48.12 2.22.38 2.7.94 4.35 3.42 4.35 6.02 0 .67-.11 1.34-.34 2.02"/><path d="M105.7 44.49h11.6v4.47c0 3.78 1.5 5.31 5.21 5.31h4.72c3.92 0 6.23-.63 6.23-5.31V15.7h11.92v34.52c0 13.91-5.85 16.63-16.65 16.63h-7.78c-11.17 0-15.25-4.47-15.25-16.28v-6.08zm46.88-11.04c0-14.82 6.39-18.31 17.13-18.31h19.11c10.74 0 17.13 3.49 17.13 18.31v15.1c0 14.81-6.39 18.31-17.13 18.31h-19.11c-10.74 0-17.13-3.5-17.13-18.31v-15.1zm12.24 10.27c0 7.34 1.18 10.13 6.82 10.13h15.25c5.64 0 6.82-2.79 6.82-10.13v-5.45c0-6.29-1.18-10.13-7.46-10.13h-13.96c-6.28 0-7.46 3.84-7.46 10.13v5.45zm48.32-28.02h11.92v18.59h5.58l15.04-18.59h16.21l-21.05 24.74 23.52 25.86H247.5l-17.18-19.43h-5.26V66.3h-11.92V15.7zm72.91 0h15.52l21.37 50.6h-13.26l-3.71-8.95h-24.16l-3.49 8.95H265l21.05-50.6zm.22 30.75h15.25l-7.73-19.01-7.52 19.01z"/><path class="cls-1" d="M326.48 49.73h11.92c.05 5.38 1.72 5.8 5.15 5.8h14.6c2.52 0 5.1-.35 5.1-4.26 0-4.4-1.4-4.68-16.76-4.68-17.93 0-19.97-2.8-19.97-15.24 0-9.16.65-16.21 15.68-16.21h16.64c13.75 0 15.04 6.08 15.04 14.96v1.61h-11.92c0-3.7-.32-5.24-5.8-5.24h-13.21c-2.69 0-4.51 1.19-4.51 3.91 0 4.4 1.45 4.54 14.23 4.47 18.52-.07 22.82 1.4 22.82 16.14 0 13.63-3.55 15.86-19.39 15.86h-14.45c-10.84 0-15.19-2.66-15.19-13.62v-3.5zm73.61-34.03h15.52l21.37 50.6h-13.26l-3.71-8.95h-24.16l-3.49 8.95h-13.31l21.05-50.6zm.22 30.75h15.25l-7.73-19.01-7.52 19.01zm40.91-30.75h40.59v12.16h-28.67v9.44h27.33v11.74h-27.33V66.3h-11.92V15.7zm47.79 0h42.52v11.74h-30.6v8.11h28.99v10.48h-28.99v8.11h31.29V66.3h-43.21V15.7z"/><path d="M109.21 90.46h8.46v3.05h-11.95V75.36h3.48v15.1zm22.84-14.67c1.63.73 2.56 2.04 2.91 4.16.14.82.19 1.88.19 4.3 0 4.35-.16 5.55-.93 6.91-.65 1.14-1.85 1.93-3.48 2.26-.73.16-2.18.24-3.95.24-2.69 0-4.05-.22-5.17-.82-1.44-.79-2.18-1.96-2.5-3.97-.14-.84-.16-1.72-.16-3.97 0-4.68.19-6.01 1.03-7.35.68-1.06 1.88-1.82 3.37-2.12.71-.16 2.2-.24 3.84-.24 2.59 0 3.78.16 4.84.6zm-9.56 9.39c0 3.18.14 4 .79 4.76.52.6 1.33.73 4.11.73s3.4-.3 3.86-1.61c.33-.9.35-1.36.35-4.76 0-2.86 0-2.94-.14-3.78-.16-1.06-.6-1.74-1.28-2.04-.6-.25-1.28-.3-3.32-.3-2.2 0-2.94.14-3.51.71-.6.57-.84 1.52-.87 3.32v2.97zm35.74 8.33h-5.09l-2.5-9.31c-.38-1.39-.44-1.63-1.06-4.49h-.14l-.25 1.12c-.41 1.72-.52 2.1-.87 3.37l-2.59 9.31h-5.03l-4.71-18.15h3.51l2.61 9.96c.25.98.38 1.55.87 3.97l.27 1.33h.11c.6-2.34 1.03-4.11 1.36-5.31l2.78-9.96h4.05l2.72 9.96c.44 1.61.46 1.77.98 3.97l.33 1.33h.11l.27-1.33c.49-2.31.63-2.91.93-3.97l2.67-9.96h3.54l-4.87 18.15zm16.76 0h-3.48V75.36h3.48v18.15zm20.03 0h-5.85l-5.2-9.96c-.33-.68-.68-1.42-1.77-3.92l-.6-1.28h-.11l.03 1.17c.08 1.74.08 1.88.08 3.56V93.5h-3.43V75.35h5.82l4.74 9.2c.68 1.36.9 1.82 2.12 4.44l.71 1.5h.11l-.03-1.17c-.08-1.69-.08-1.82-.08-3.51V75.36h3.46v18.15zm24.71-6.48v.63c0 2.72-.27 3.73-1.25 4.65-.57.54-1.52 1.01-2.53 1.2-.57.08-2.18.16-3.78.16-3.13 0-3.97-.14-5.17-.82-1.58-.84-2.26-2.2-2.45-4.79-.08-1.03-.14-3.27-.14-4.93 0-3.78.35-5.17 1.58-6.34 1.36-1.31 2.72-1.61 7.13-1.61 2.88 0 4.03.24 4.95 1.03.76.65 1.22 1.61 1.39 2.94.05.43.08.98.11 2.23h-3.46c-.05-2.91-.38-3.21-3.48-3.21-2.31 0-3.32.19-3.86.71-.46.46-.65 1.12-.71 2.5q-.03.46-.03 2.94c0 5.96.24 6.34 4.14 6.34 3.54 0 4.14-.44 4.14-2.89 0-.16 0-.41-.03-.76h3.46zm5.53 2.99l-1.12 3.48h-3.65l6.04-18.15h5.14l6.15 18.15h-3.57l-1.17-3.48h-7.84zm3.92-12l-3.1 9.42h6.23l-3.13-9.42zm10.23-2.66h8.93c4.38 0 5.88 1.36 5.88 5.42 0 3.62-.63 4.6-3.27 5.12v.14c2.07.11 3.1 1.33 3.08 3.54v3.95h-3.51v-3.27c.05-1.99-.79-2.83-2.72-2.78h-4.9v6.04h-3.48V75.37zm8.36 9.14c1.09 0 1.8-.16 2.2-.54.57-.46.71-1.01.71-2.56 0-2.56-.44-3.05-2.67-3.05h-5.12v6.15h4.87zm8.98-9.14h8.95c1.93 0 2.91.16 3.67.57 1.2.68 1.74 1.99 1.74 4.19 0 2.5-.71 3.56-2.67 4v.08c2.37.38 3.1 1.42 3.1 4.33 0 3.67-1.39 4.98-5.36 4.98h-9.44V75.36zm7.7 7.62c1.47 0 1.99-.08 2.42-.33.57-.33.79-.93.79-2.18 0-1.17-.25-1.74-.82-2.04-.33-.14-.71-.19-1.69-.19h-4.93v4.74h4.22zm-.44 7.64c3.62 0 4.08-.27 4.08-2.45 0-1.44-.25-2.07-.95-2.4-.41-.19-.84-.22-2.5-.22h-4.41v5.06h3.78zm22.54-14.83c1.63.73 2.56 2.04 2.91 4.16.14.82.19 1.88.19 4.3 0 4.35-.16 5.55-.93 6.91-.65 1.14-1.85 1.93-3.48 2.26-.73.16-2.18.24-3.95.24-2.69 0-4.05-.22-5.17-.82-1.44-.79-2.18-1.96-2.5-3.97-.14-.84-.16-1.72-.16-3.97 0-4.68.19-6.01 1.03-7.35.68-1.06 1.88-1.82 3.37-2.12.71-.16 2.2-.24 3.84-.24 2.59 0 3.78.16 4.84.6zM277 85.18c0 3.18.14 4 .79 4.76.52.6 1.33.73 4.11.73s3.4-.3 3.86-1.61c.33-.9.35-1.36.35-4.76 0-2.86 0-2.94-.14-3.78-.16-1.06-.6-1.74-1.28-2.04-.6-.25-1.28-.3-3.32-.3-2.2 0-2.94.14-3.51.71-.6.57-.84 1.52-.87 3.32v2.97zm32.08 8.33h-5.85l-5.2-9.96c-.33-.68-.68-1.42-1.77-3.92l-.6-1.28h-.11l.03 1.17c.08 1.74.08 1.88.08 3.56V93.5h-3.43V75.35h5.82l4.74 9.2c.68 1.36.9 1.82 2.12 4.44l.71 1.5h.11l-.03-1.17c-.08-1.69-.08-1.82-.08-3.51V75.36h3.46v18.15zm5.8 0h-3.02v-3.32h3.02v3.32z" fill="#3aaa35"/><path d="M340.03 93.51h-3.48v-7.76h-8.41v7.76h-3.48V75.36h3.48v7.43h8.41v-7.43h3.48v18.15zm6.42 0h-3.48V75.36h3.48v18.15zm18.4-9.64c.05.92.05 1.58.05 3.13 0 3.1-.27 4.22-1.25 5.23-1.09 1.14-2.53 1.44-6.83 1.44-2.48 0-3.59-.14-4.65-.57-2.34-.98-3.13-2.72-3.13-6.91 0-4.76.05-5.82.41-7.16.49-1.82 1.66-2.99 3.46-3.51.84-.25 2.04-.33 4.33-.33 3.73 0 4.65.14 5.88.87 1.22.73 1.69 2.01 1.74 4.74h-3.51c-.11-2.42-.54-2.69-4.3-2.69-2.61 0-3.54.3-4.03 1.31-.35.76-.44 1.61-.44 4.9s.08 4.44.41 5.14c.46 1.01 1.47 1.31 4.3 1.31 1.99 0 2.99-.19 3.46-.65.46-.46.71-1.44.71-2.91 0-.08-.03-.41-.05-.73h-4.55v-2.59h8zm17.8 9.64h-3.48v-7.76h-8.41v7.76h-3.48V75.36h3.48v7.43h8.41v-7.43h3.48v18.15zm13.5 0h-3.48V75.36h3.48v18.15zm20.03 0h-5.85l-5.2-9.96c-.33-.68-.68-1.42-1.77-3.92l-.6-1.28h-.11l.03 1.17c.08 1.74.08 1.88.08 3.56V93.5h-3.43V75.35h5.82l4.74 9.2c.68 1.36.9 1.82 2.12 4.44l.71 1.5h.11l-.03-1.17c-.08-1.69-.08-1.82-.08-3.51V75.36h3.46v18.15zm25.69-.36l-1.74-1.2c-1.28 1.33-2.75 1.72-6.37 1.72-3.97 0-5.61-.41-6.75-1.77-1.17-1.33-1.44-2.69-1.44-6.89 0-4.79.19-6.1 1.03-7.46.71-1.06 1.88-1.82 3.37-2.12.73-.16 2.15-.24 3.84-.24 2.56 0 3.84.16 4.84.6 1.63.73 2.56 2.04 2.91 4.16.14.82.19 1.91.19 4.49 0 3.27-.05 4.11-.35 5.33l1.88 1.31-1.42 2.07zm-7.49-8.19l3.76 2.56c.05-.65.08-1.06.08-1.31v-1.85q0-3.02-.14-3.84c-.16-1.06-.57-1.74-1.28-2.04-.6-.25-1.28-.3-3.32-.3-2.2 0-2.94.14-3.51.71-.6.57-.84 1.52-.87 3.32v2.99c0 2.59.08 3.29.41 4.14.46 1.12 1.17 1.33 4.71 1.33 1.66 0 2.04-.11 2.97-.76l-4.22-2.86 1.42-2.1zm25.4-9.6v12.08c0 2.23-.27 3.46-.95 4.35-.54.71-1.33 1.25-2.37 1.55-.71.22-2.12.33-4.22.33-2.67 0-3.89-.14-4.95-.6-1.96-.84-2.59-2.15-2.59-5.44V75.36h3.48v12.27c0 2.64.54 3.05 4.08 3.05s4.03-.38 4.03-3.18V75.36h3.48zm5.93 14.66l-1.12 3.48h-3.65l6.04-18.15h5.14l6.15 18.15h-3.56l-1.17-3.48h-7.84zm3.92-12l-3.1 9.42h6.23l-3.13-9.42zm13.72 12.44h8.46v3.05h-11.95V75.36h3.48v15.1zm13.69 3.05h-3.48V75.36h3.48v18.15zm10.55 0h-3.48v-15.1h-5.25v-3.05h14.1v3.05h-5.36v15.1zm16.33-6.94v6.94h-3.48v-6.94l-6.53-11.21h3.97l2.75 4.79c.22.38.44.79 1.17 2.2l.38.73h.08l.41-.73c.68-1.36.9-1.71 1.17-2.2l2.78-4.79h4.03l-6.72 11.21zm8.3 6.94h-3.02v-3.32h3.02v3.32zM541.39 0c2.16 0 4 .77 5.54 2.31s2.3 3.39 2.3 5.57-.77 4.03-2.3 5.57-3.38 2.31-5.54 2.31-4.04-.77-5.58-2.31-2.31-3.4-2.31-5.58.77-4.03 2.31-5.57 3.4-2.31 5.58-2.31zm-.01 1.09c-1.84 0-3.41.66-4.72 1.99-1.31 1.32-1.96 2.92-1.96 4.8s.65 3.48 1.96 4.81c1.3 1.33 2.88 1.99 4.72 1.99s3.41-.66 4.71-1.99c1.3-1.33 1.95-2.93 1.95-4.81s-.65-3.47-1.95-4.8c-1.3-1.33-2.87-1.99-4.71-1.99zm-3.75 11.12V3.39h4.49c1.98 0 2.98.91 2.98 2.74 0 1.33-.45 2.12-1.36 2.39.84.2 1.26.78 1.26 1.73v1.96h-1.86v-1.63c0-.83-.43-1.25-1.29-1.25h-2.37v2.87h-1.86zm1.86-4.46h2.37c.98 0 1.47-.47 1.47-1.4s-.45-1.37-1.36-1.37h-2.48v2.77z"/></svg>